<svg xmlns="http://www.w3.org/2000/svg" viewBox="0 0 600 337" role="img" aria-label="Unit import values before and after a tariff with 95 percent confidence intervals" style="font-family:system-ui,sans-serif"><title>Unit import values before and after a tariff with 95 percent confidence intervals</title><rect width="600" height="337" fill="white"/><text x="63.00" y="20.00" font-size="13" fill="#59697d" text-anchor="start" font-weight="400">Change in log unit value</text><line x1="63.00" y1="278.00" x2="572.00" y2="278.00" stroke="#e2e7ef" stroke-width="1"/><text x="53.00" y="282.00" font-size="12" fill="#59697d" text-anchor="end" font-weight="400">−0.1</text><line x1="63.00" y1="218.54" x2="572.00" y2="218.54" stroke="#a9b7ca" stroke-width="1.4"/><text x="53.00" y="222.54" font-size="12" fill="#59697d" text-anchor="end" font-weight="400">0</text><line x1="63.00" y1="159.08" x2="572.00" y2="159.08" stroke="#e2e7ef" stroke-width="1"/><text x="53.00" y="163.08" font-size="12" fill="#59697d" text-anchor="end" font-weight="400">0.1</text><line x1="63.00" y1="99.62" x2="572.00" y2="99.62" stroke="#e2e7ef" stroke-width="1"/><text x="53.00" y="103.62" font-size="12" fill="#59697d" text-anchor="end" font-weight="400">0.2</text><text x="74.07" y="300.00" font-size="12" fill="#59697d" text-anchor="middle" font-weight="400">−12</text><text x="206.85" y="300.00" font-size="12" fill="#59697d" text-anchor="middle" font-weight="400">−6</text><text x="339.63" y="300.00" font-size="12" fill="#59697d" text-anchor="middle" font-weight="400">0</text><text x="472.41" y="300.00" font-size="12" fill="#59697d" text-anchor="middle" font-weight="400">+6</text><text x="560.93" y="300.00" font-size="12" fill="#59697d" text-anchor="middle" font-weight="400">+10</text><line x1="339.63" y1="58.00" x2="339.63" y2="278.00" stroke="#8998ad" stroke-width="1" stroke-dasharray="4 4"/><text x="346.63" y="72.00" font-size="12" fill="#59697d" text-anchor="start" font-weight="400">Tariff begins</text><line x1="74.07" y1="265.51" x2="74.07" y2="208.08" stroke="#2458cc" stroke-width="0.9"/><line x1="96.20" y1="257.96" x2="96.20" y2="202.37" stroke="#2458cc" stroke-width="0.9"/><line x1="118.33" y1="247.79" x2="118.33" y2="193.86" stroke="#2458cc" stroke-width="0.9"/><line x1="140.46" y1="268.55" x2="140.46" y2="212.18" stroke="#2458cc" stroke-width="0.9"/><line x1="162.59" y1="248.81" x2="162.59" y2="192.08" stroke="#2458cc" stroke-width="0.9"/><line x1="184.72" y1="268.37" x2="184.72" y2="208.31" stroke="#2458cc" stroke-width="0.9"/><line x1="206.85" y1="228.47" x2="206.85" y2="171.39" stroke="#2458cc" stroke-width="0.9"/><line x1="228.98" y1="241.49" x2="228.98" y2="187.44" stroke="#2458cc" stroke-width="0.9"/><line x1="251.11" y1="232.81" x2="251.11" y2="178.52" stroke="#2458cc" stroke-width="0.9"/><line x1="273.24" y1="218.54" x2="273.24" y2="218.54" stroke="#2458cc" stroke-width="0.9"/><line x1="295.37" y1="261.59" x2="295.37" y2="208.19" stroke="#2458cc" stroke-width="0.9"/><line x1="317.50" y1="232.69" x2="317.50" y2="181.44" stroke="#2458cc" stroke-width="0.9"/><line x1="339.63" y1="239.77" x2="339.63" y2="185.36" stroke="#2458cc" stroke-width="0.9"/><line x1="361.76" y1="223.48" x2="361.76" y2="169.31" stroke="#2458cc" stroke-width="0.9"/><line x1="383.89" y1="231.09" x2="383.89" y2="172.82" stroke="#2458cc" stroke-width="0.9"/><line x1="406.02" y1="241.19" x2="406.02" y2="184.83" stroke="#2458cc" stroke-width="0.9"/><line x1="428.15" y1="247.91" x2="428.15" y2="189.29" stroke="#2458cc" stroke-width="0.9"/><line x1="450.28" y1="233.23" x2="450.28" y2="172.82" stroke="#2458cc" stroke-width="0.9"/><line x1="472.41" y1="216.76" x2="472.41" y2="148.74" stroke="#2458cc" stroke-width="0.9"/><line x1="494.54" y1="214.20" x2="494.54" y2="151.35" stroke="#2458cc" stroke-width="0.9"/><line x1="516.67" y1="220.74" x2="516.67" y2="159.08" stroke="#2458cc" stroke-width="0.9"/><line x1="538.80" y1="253.68" x2="538.80" y2="191.01" stroke="#2458cc" stroke-width="0.9"/><line x1="560.93" y1="246.61" x2="560.93" y2="183.88" stroke="#2458cc" stroke-width="0.9"/><polyline points="74.07,236.79 96.20,230.19 118.33,220.80 140.46,240.36 162.59,220.44 184.72,238.34 206.85,199.93 228.98,214.50 251.11,205.64 273.24,218.54 295.37,234.89 317.50,207.06 339.63,212.59 361.76,196.42 383.89,201.95 406.02,213.01 428.15,218.60 450.28,203.02 472.41,182.75 494.54,182.75 516.67,189.94 538.80,222.35 560.93,215.27" fill="none" stroke="#2458cc" stroke-width="2.3"/><circle cx="74.07" cy="236.79" r="3.5" fill="#2458cc"/><circle cx="96.20" cy="230.19" r="3.5" fill="#2458cc"/><circle cx="118.33" cy="220.80" r="3.5" fill="#2458cc"/><circle cx="140.46" cy="240.36" r="3.5" fill="#2458cc"/><circle cx="162.59" cy="220.44" r="3.5" fill="#2458cc"/><circle cx="184.72" cy="238.34" r="3.5" fill="#2458cc"/><circle cx="206.85" cy="199.93" r="3.5" fill="#2458cc"/><circle cx="228.98" cy="214.50" r="3.5" fill="#2458cc"/><circle cx="251.11" cy="205.64" r="3.5" fill="#2458cc"/><circle cx="273.24" cy="218.54" r="3.5" fill="#2458cc"/><circle cx="295.37" cy="234.89" r="3.5" fill="#2458cc"/><circle cx="317.50" cy="207.06" r="3.5" fill="#2458cc"/><circle cx="339.63" cy="212.59" r="3.5" fill="#2458cc"/><circle cx="361.76" cy="196.42" r="3.5" fill="#2458cc"/><circle cx="383.89" cy="201.95" r="3.5" fill="#2458cc"/><circle cx="406.02" cy="213.01" r="3.5" fill="#2458cc"/><circle cx="428.15" cy="218.60" r="3.5" fill="#2458cc"/><circle cx="450.28" cy="203.02" r="3.5" fill="#2458cc"/><circle cx="472.41" cy="182.75" r="3.5" fill="#2458cc"/><circle cx="494.54" cy="182.75" r="3.5" fill="#2458cc"/><circle cx="516.67" cy="189.94" r="3.5" fill="#2458cc"/><circle cx="538.80" cy="222.35" r="3.5" fill="#2458cc"/><circle cx="560.93" cy="215.27" r="3.5" fill="#2458cc"/><line x1="74.07" y1="266.94" x2="74.07" y2="209.44" stroke="#b65520" stroke-width="0.9"/><line x1="96.20" y1="259.03" x2="96.20" y2="203.44" stroke="#b65520" stroke-width="0.9"/><line x1="118.33" y1="248.75" x2="118.33" y2="194.70" stroke="#b65520" stroke-width="0.9"/><line x1="140.46" y1="269.68" x2="140.46" y2="213.37" stroke="#b65520" stroke-width="0.9"/><line x1="162.59" y1="249.99" x2="162.59" y2="193.21" stroke="#b65520" stroke-width="0.9"/><line x1="184.72" y1="269.74" x2="184.72" y2="209.62" stroke="#b65520" stroke-width="0.9"/><line x1="206.85" y1="229.66" x2="206.85" y2="172.46" stroke="#b65520" stroke-width="0.9"/><line x1="228.98" y1="242.68" x2="228.98" y2="188.63" stroke="#b65520" stroke-width="0.9"/><line x1="251.11" y1="233.29" x2="251.11" y2="179.00" stroke="#b65520" stroke-width="0.9"/><line x1="273.24" y1="218.54" x2="273.24" y2="218.54" stroke="#b65520" stroke-width="0.9"/><line x1="295.37" y1="261.65" x2="295.37" y2="208.25" stroke="#b65520" stroke-width="0.9"/><line x1="317.50" y1="232.87" x2="317.50" y2="181.62" stroke="#b65520" stroke-width="0.9"/><line x1="339.63" y1="209.15" x2="339.63" y2="154.15" stroke="#b65520" stroke-width="0.9"/><line x1="361.76" y1="150.64" x2="361.76" y2="96.53" stroke="#b65520" stroke-width="0.9"/><line x1="383.89" y1="155.99" x2="383.89" y2="96.77" stroke="#b65520" stroke-width="0.9"/><line x1="406.02" y1="166.63" x2="406.02" y2="109.55" stroke="#b65520" stroke-width="0.9"/><line x1="428.15" y1="173.41" x2="428.15" y2="114.43" stroke="#b65520" stroke-width="0.9"/><line x1="450.28" y1="161.58" x2="450.28" y2="100.75" stroke="#b65520" stroke-width="0.9"/><line x1="472.41" y1="142.08" x2="472.41" y2="73.46" stroke="#b65520" stroke-width="0.9"/><line x1="494.54" y1="140.65" x2="494.54" y2="77.32" stroke="#b65520" stroke-width="0.9"/><line x1="516.67" y1="142.49" x2="516.67" y2="80.18" stroke="#b65520" stroke-width="0.9"/><line x1="538.80" y1="148.32" x2="538.80" y2="85.53" stroke="#b65520" stroke-width="0.9"/><line x1="560.93" y1="135.30" x2="560.93" y2="72.75" stroke="#b65520" stroke-width="0.9"/><polyline points="74.07,238.16 96.20,231.21 118.33,221.69 140.46,241.55 162.59,221.63 184.72,239.65 206.85,201.06 228.98,215.63 251.11,206.11 273.24,218.54 295.37,234.95 317.50,207.24 339.63,181.62 361.76,123.58 383.89,126.38 406.02,138.09 428.15,143.92 450.28,131.19 472.41,107.77 494.54,109.02 516.67,111.34 538.80,116.92 560.93,104.02" fill="none" stroke="#b65520" stroke-width="2.3"/><circle cx="74.07" cy="238.16" r="3.5" fill="#b65520"/><circle cx="96.20" cy="231.21" r="3.5" fill="#b65520"/><circle cx="118.33" cy="221.69" r="3.5" fill="#b65520"/><circle cx="140.46" cy="241.55" r="3.5" fill="#b65520"/><circle cx="162.59" cy="221.63" r="3.5" fill="#b65520"/><circle cx="184.72" cy="239.65" r="3.5" fill="#b65520"/><circle cx="206.85" cy="201.06" r="3.5" fill="#b65520"/><circle cx="228.98" cy="215.63" r="3.5" fill="#b65520"/><circle cx="251.11" cy="206.11" r="3.5" fill="#b65520"/><circle cx="273.24" cy="218.54" r="3.5" fill="#b65520"/><circle cx="295.37" cy="234.95" r="3.5" fill="#b65520"/><circle cx="317.50" cy="207.24" r="3.5" fill="#b65520"/><circle cx="339.63" cy="181.62" r="3.5" fill="#b65520"/><circle cx="361.76" cy="123.58" r="3.5" fill="#b65520"/><circle cx="383.89" cy="126.38" r="3.5" fill="#b65520"/><circle cx="406.02" cy="138.09" r="3.5" fill="#b65520"/><circle cx="428.15" cy="143.92" r="3.5" fill="#b65520"/><circle cx="450.28" cy="131.19" r="3.5" fill="#b65520"/><circle cx="472.41" cy="107.77" r="3.5" fill="#b65520"/><circle cx="494.54" cy="109.02" r="3.5" fill="#b65520"/><circle cx="516.67" cy="111.34" r="3.5" fill="#b65520"/><circle cx="538.80" cy="116.92" r="3.5" fill="#b65520"/><circle cx="560.93" cy="104.02" r="3.5" fill="#b65520"/><text x="317.50" y="324.00" font-size="13" fill="#59697d" text-anchor="middle" font-weight="400">Months relative to tariff implementation</text><line x1="63.00" y1="40.00" x2="83.00" y2="40.00" stroke="#2458cc" stroke-width="3"/><text x="90.00" y="44.00" font-size="13" fill="#2458cc" text-anchor="start" font-weight="400">Excluding duty</text><line x1="308.00" y1="40.00" x2="328.00" y2="40.00" stroke="#b65520" stroke-width="3"/><text x="335.00" y="44.00" font-size="13" fill="#b65520" text-anchor="start" font-weight="400">Including duty</text></svg>
