<svg xmlns="http://www.w3.org/2000/svg" viewBox="0 0 600 340" role="img" aria-label="Gross edge for every one of 144 overlapping simulated trading scenarios, with the 4 bp fee marked" style="font-family:system-ui,sans-serif"><title>Gross edge for every one of 144 overlapping simulated trading scenarios, with the 4 bp fee marked</title><rect width="600" height="340" fill="white"/><text x="58.00" y="22.00" font-size="13" fill="#59697d" text-anchor="start" font-weight="400">Gross edge (basis points per unit turnover)</text><line x1="58.00" y1="237.36" x2="568.00" y2="237.36" stroke="#e2e7ef" stroke-width="1"/><text x="46.00" y="241.36" font-size="12" fill="#59697d" text-anchor="end" font-weight="400">-4</text><line x1="58.00" y1="197.73" x2="568.00" y2="197.73" stroke="#e2e7ef" stroke-width="1"/><text x="46.00" y="201.73" font-size="12" fill="#59697d" text-anchor="end" font-weight="400">-2</text><line x1="58.00" y1="158.09" x2="568.00" y2="158.09" stroke="#9cabbf" stroke-width="1.4"/><text x="46.00" y="162.09" font-size="12" fill="#59697d" text-anchor="end" font-weight="400">0</text><line x1="58.00" y1="118.45" x2="568.00" y2="118.45" stroke="#e2e7ef" stroke-width="1"/><text x="46.00" y="122.45" font-size="12" fill="#59697d" text-anchor="end" font-weight="400">2</text><line x1="58.00" y1="78.82" x2="568.00" y2="78.82" stroke="#e2e7ef" stroke-width="1"/><text x="46.00" y="82.82" font-size="12" fill="#59697d" text-anchor="end" font-weight="400">4</text><line x1="58.00" y1="78.82" x2="568.00" y2="78.82" stroke="#b65520" stroke-width="1" stroke-dasharray="5 4"/><text x="560.00" y="68.82" font-size="12" fill="#b65520" text-anchor="end" font-weight="400">4 bp taker fee</text><circle cx="58.00" cy="252.59" r="2.25" fill="#2458cc"/><circle cx="61.57" cy="252.59" r="2.25" fill="#2458cc"/><circle cx="65.13" cy="252.59" r="2.25" fill="#2458cc"/><circle cx="68.70" cy="252.59" r="2.25" fill="#2458cc"/><circle cx="72.27" cy="252.59" r="2.25" fill="#2458cc"/><circle cx="75.83" cy="252.59" r="2.25" fill="#2458cc"/><circle cx="79.40" cy="252.59" r="2.25" fill="#2458cc"/><circle cx="82.97" cy="252.59" r="2.25" fill="#2458cc"/><circle cx="86.53" cy="252.59" r="2.25" fill="#2458cc"/><circle cx="90.10" cy="164.25" r="2.25" fill="#2458cc"/><circle cx="93.66" cy="164.24" r="2.25" fill="#2458cc"/><circle cx="97.23" cy="164.24" r="2.25" fill="#2458cc"/><circle cx="100.80" cy="164.21" r="2.25" fill="#2458cc"/><circle cx="104.36" cy="164.21" r="2.25" fill="#2458cc"/><circle cx="107.93" cy="164.11" r="2.25" fill="#2458cc"/><circle cx="111.50" cy="164.04" r="2.25" fill="#2458cc"/><circle cx="115.06" cy="164.04" r="2.25" fill="#2458cc"/><circle cx="118.63" cy="163.77" r="2.25" fill="#2458cc"/><circle cx="122.20" cy="163.23" r="2.25" fill="#2458cc"/><circle cx="125.76" cy="163.23" r="2.25" fill="#2458cc"/><circle cx="129.33" cy="163.18" r="2.25" fill="#2458cc"/><circle cx="132.90" cy="163.18" r="2.25" fill="#2458cc"/><circle cx="136.46" cy="163.15" r="2.25" fill="#2458cc"/><circle cx="140.03" cy="163.04" r="2.25" fill="#2458cc"/><circle cx="143.59" cy="162.87" r="2.25" fill="#2458cc"/><circle cx="147.16" cy="162.87" r="2.25" fill="#2458cc"/><circle cx="150.73" cy="162.37" r="2.25" fill="#2458cc"/><circle cx="154.29" cy="158.57" r="2.25" fill="#2458cc"/><circle cx="157.86" cy="158.47" r="2.25" fill="#2458cc"/><circle cx="161.43" cy="158.19" r="2.25" fill="#2458cc"/><circle cx="164.99" cy="158.19" r="2.25" fill="#2458cc"/><circle cx="168.56" cy="158.13" r="2.25" fill="#2458cc"/><circle cx="172.13" cy="158.13" r="2.25" fill="#2458cc"/><circle cx="175.69" cy="158.12" r="2.25" fill="#2458cc"/><circle cx="179.26" cy="158.08" r="2.25" fill="#2458cc"/><circle cx="182.83" cy="158.08" r="2.25" fill="#2458cc"/><circle cx="186.39" cy="158.00" r="2.25" fill="#2458cc"/><circle cx="189.96" cy="158.00" r="2.25" fill="#2458cc"/><circle cx="193.52" cy="157.86" r="2.25" fill="#2458cc"/><circle cx="197.09" cy="157.86" r="2.25" fill="#2458cc"/><circle cx="200.66" cy="157.79" r="2.25" fill="#2458cc"/><circle cx="204.22" cy="157.79" r="2.25" fill="#2458cc"/><circle cx="207.79" cy="157.70" r="2.25" fill="#2458cc"/><circle cx="211.36" cy="157.59" r="2.25" fill="#2458cc"/><circle cx="214.92" cy="157.52" r="2.25" fill="#2458cc"/><circle cx="218.49" cy="157.50" r="2.25" fill="#2458cc"/><circle cx="222.06" cy="157.50" r="2.25" fill="#2458cc"/><circle cx="225.62" cy="157.37" r="2.25" fill="#2458cc"/><circle cx="229.19" cy="157.37" r="2.25" fill="#2458cc"/><circle cx="232.76" cy="157.36" r="2.25" fill="#2458cc"/><circle cx="236.32" cy="157.16" r="2.25" fill="#2458cc"/><circle cx="239.89" cy="157.16" r="2.25" fill="#2458cc"/><circle cx="243.45" cy="156.86" r="2.25" fill="#2458cc"/><circle cx="247.02" cy="156.60" r="2.25" fill="#2458cc"/><circle cx="250.59" cy="156.54" r="2.25" fill="#2458cc"/><circle cx="254.15" cy="156.46" r="2.25" fill="#2458cc"/><circle cx="257.72" cy="156.46" r="2.25" fill="#2458cc"/><circle cx="261.29" cy="156.42" r="2.25" fill="#2458cc"/><circle cx="264.85" cy="156.42" r="2.25" fill="#2458cc"/><circle cx="268.42" cy="156.22" r="2.25" fill="#2458cc"/><circle cx="271.99" cy="156.07" r="2.25" fill="#2458cc"/><circle cx="275.55" cy="156.07" r="2.25" fill="#2458cc"/><circle cx="279.12" cy="155.75" r="2.25" fill="#2458cc"/><circle cx="282.69" cy="155.67" r="2.25" fill="#2458cc"/><circle cx="286.25" cy="155.38" r="2.25" fill="#2458cc"/><circle cx="289.82" cy="155.38" r="2.25" fill="#2458cc"/><circle cx="293.38" cy="155.31" r="2.25" fill="#2458cc"/><circle cx="296.95" cy="155.31" r="2.25" fill="#2458cc"/><circle cx="300.52" cy="155.27" r="2.25" fill="#2458cc"/><circle cx="304.08" cy="155.27" r="2.25" fill="#2458cc"/><circle cx="307.65" cy="155.26" r="2.25" fill="#2458cc"/><circle cx="311.22" cy="155.26" r="2.25" fill="#2458cc"/><circle cx="314.78" cy="155.19" r="2.25" fill="#2458cc"/><circle cx="318.35" cy="155.19" r="2.25" fill="#2458cc"/><circle cx="321.92" cy="155.18" r="2.25" fill="#2458cc"/><circle cx="325.48" cy="155.18" r="2.25" fill="#2458cc"/><circle cx="329.05" cy="155.16" r="2.25" fill="#2458cc"/><circle cx="332.62" cy="155.03" r="2.25" fill="#2458cc"/><circle cx="336.18" cy="154.86" r="2.25" fill="#2458cc"/><circle cx="339.75" cy="154.86" r="2.25" fill="#2458cc"/><circle cx="343.31" cy="154.63" r="2.25" fill="#2458cc"/><circle cx="346.88" cy="154.54" r="2.25" fill="#2458cc"/><circle cx="350.45" cy="154.40" r="2.25" fill="#2458cc"/><circle cx="354.01" cy="154.40" r="2.25" fill="#2458cc"/><circle cx="357.58" cy="154.36" r="2.25" fill="#2458cc"/><circle cx="361.15" cy="154.36" r="2.25" fill="#2458cc"/><circle cx="364.71" cy="154.34" r="2.25" fill="#2458cc"/><circle cx="368.28" cy="154.28" r="2.25" fill="#2458cc"/><circle cx="371.85" cy="154.25" r="2.25" fill="#2458cc"/><circle cx="375.41" cy="154.25" r="2.25" fill="#2458cc"/><circle cx="378.98" cy="154.24" r="2.25" fill="#2458cc"/><circle cx="382.55" cy="154.24" r="2.25" fill="#2458cc"/><circle cx="386.11" cy="154.24" r="2.25" fill="#2458cc"/><circle cx="389.68" cy="154.19" r="2.25" fill="#2458cc"/><circle cx="393.24" cy="154.19" r="2.25" fill="#2458cc"/><circle cx="396.81" cy="154.18" r="2.25" fill="#2458cc"/><circle cx="400.38" cy="154.18" r="2.25" fill="#2458cc"/><circle cx="403.94" cy="154.18" r="2.25" fill="#2458cc"/><circle cx="407.51" cy="154.13" r="2.25" fill="#2458cc"/><circle cx="411.08" cy="154.13" r="2.25" fill="#2458cc"/><circle cx="414.64" cy="154.08" r="2.25" fill="#2458cc"/><circle cx="418.21" cy="154.08" r="2.25" fill="#2458cc"/><circle cx="421.78" cy="153.97" r="2.25" fill="#2458cc"/><circle cx="425.34" cy="153.86" r="2.25" fill="#2458cc"/><circle cx="428.91" cy="153.82" r="2.25" fill="#2458cc"/><circle cx="432.48" cy="153.65" r="2.25" fill="#2458cc"/><circle cx="436.04" cy="153.65" r="2.25" fill="#2458cc"/><circle cx="439.61" cy="153.37" r="2.25" fill="#2458cc"/><circle cx="443.17" cy="150.51" r="2.25" fill="#2458cc"/><circle cx="446.74" cy="150.51" r="2.25" fill="#2458cc"/><circle cx="450.31" cy="150.51" r="2.25" fill="#2458cc"/><circle cx="453.87" cy="150.49" r="2.25" fill="#2458cc"/><circle cx="457.44" cy="150.49" r="2.25" fill="#2458cc"/><circle cx="461.01" cy="150.48" r="2.25" fill="#2458cc"/><circle cx="464.57" cy="150.48" r="2.25" fill="#2458cc"/><circle cx="468.14" cy="150.48" r="2.25" fill="#2458cc"/><circle cx="471.71" cy="150.48" r="2.25" fill="#2458cc"/><circle cx="475.27" cy="150.47" r="2.25" fill="#2458cc"/><circle cx="478.84" cy="150.44" r="2.25" fill="#2458cc"/><circle cx="482.41" cy="150.44" r="2.25" fill="#2458cc"/><circle cx="485.97" cy="150.32" r="2.25" fill="#2458cc"/><circle cx="489.54" cy="150.28" r="2.25" fill="#2458cc"/><circle cx="493.10" cy="150.26" r="2.25" fill="#2458cc"/><circle cx="496.67" cy="150.26" r="2.25" fill="#2458cc"/><circle cx="500.24" cy="149.74" r="2.25" fill="#2458cc"/><circle cx="503.80" cy="148.69" r="2.25" fill="#2458cc"/><circle cx="507.37" cy="145.34" r="2.25" fill="#2458cc"/><circle cx="510.94" cy="145.34" r="2.25" fill="#2458cc"/><circle cx="514.50" cy="145.34" r="2.25" fill="#2458cc"/><circle cx="518.07" cy="145.29" r="2.25" fill="#2458cc"/><circle cx="521.64" cy="145.29" r="2.25" fill="#2458cc"/><circle cx="525.20" cy="145.22" r="2.25" fill="#2458cc"/><circle cx="528.77" cy="145.22" r="2.25" fill="#2458cc"/><circle cx="532.34" cy="145.02" r="2.25" fill="#2458cc"/><circle cx="535.90" cy="141.55" r="2.25" fill="#2458cc"/><circle cx="539.47" cy="110.82" r="2.25" fill="#2458cc"/><circle cx="543.03" cy="110.82" r="2.25" fill="#2458cc"/><circle cx="546.60" cy="110.82" r="2.25" fill="#2458cc"/><circle cx="550.17" cy="110.82" r="2.25" fill="#2458cc"/><circle cx="553.73" cy="110.82" r="2.25" fill="#2458cc"/><circle cx="557.30" cy="110.82" r="2.25" fill="#2458cc"/><circle cx="560.87" cy="110.82" r="2.25" fill="#2458cc"/><circle cx="564.43" cy="110.82" r="2.25" fill="#2458cc"/><circle cx="568.00" cy="110.82" r="2.25" fill="#2458cc"/><text x="58.00" y="302.00" font-size="12" fill="#59697d" text-anchor="middle" font-weight="400">1</text><text x="568.00" y="302.00" font-size="12" fill="#59697d" text-anchor="middle" font-weight="400">144</text><text x="315.00" y="323.00" font-size="13" fill="#59697d" text-anchor="middle" font-weight="400">Scenarios, sorted by gross edge</text><text x="58.00" y="43.00" font-size="13" fill="#2458cc" text-anchor="start" font-weight="400">● Gross edge per scenario</text></svg>
